<svg xmlns="http://www.w3.org/2000/svg" width="23.183" height="25.767" viewBox="127.233 126.55 23.183 25.767"><path d="M142.681 129.134v-1.287a1.288 1.288 0 0 1 2.575 0v1.287a5.148 5.148 0 0 1 5.148 5.15v12.871a5.148 5.148 0 0 1-5.148 5.149h-12.872a5.149 5.149 0 0 1-5.149-5.149v-12.872a5.149 5.149 0 0 1 5.149-5.149v-1.287a1.288 1.288 0 0 1 2.574 0v1.287h7.723Zm5.149 10.298h-18.02v7.723a2.575 2.575 0 0 0 2.574 2.574h12.872a2.574 2.574 0 0 0 2.574-2.574v-7.723Zm-6.574 4.705 1.815-1.766a1.287 1.287 0 0 1 1.796 1.845l-2.647 2.575a1.288 1.288 0 0 1-1.722.065l-1.45-1.21a1.286 1.286 0 1 1 1.65-1.975l.558.466Zm4-12.428v1.287a1.288 1.288 0 0 1-2.575 0v-1.287h-7.723v1.287a1.288 1.288 0 0 1-2.574 0v-1.287a2.574 2.574 0 0 0-2.575 2.574v2.574h18.021v-2.574a2.574 2.574 0 0 0-2.574-2.574Z" fill="#fff" fill-rule="evenodd" data-name="Path 1950"/></svg>