<svg xmlns="http://www.w3.org/2000/svg" width="25.233" height="28.033" viewBox="-0.017 -0.017 25.233 28.033"><path d="M16.8 2.8V1.4a1.4 1.4 0 0 1 2.8 0v1.4a5.6 5.6 0 0 1 5.6 5.6v14a5.6 5.6 0 0 1-5.6 5.6h-14A5.6 5.6 0 0 1 0 22.4v-14a5.6 5.6 0 0 1 5.6-5.6V1.4a1.4 1.4 0 0 1 2.8 0v1.4h8.4ZM22.4 14H2.8v8.4c0 1.546 1.254 2.8 2.8 2.8h14a2.8 2.8 0 0 0 2.8-2.8V14Zm-7.15 5.117 1.974-1.92a1.4 1.4 0 0 1 1.953 2.007l-2.878 2.8a1.4 1.4 0 0 1-1.873.071l-1.577-1.316a1.399 1.399 0 1 1 1.794-2.149l.607.507ZM19.6 5.6V7a1.4 1.4 0 0 1-2.8 0V5.6H8.4V7a1.4 1.4 0 0 1-2.8 0V5.6a2.8 2.8 0 0 0-2.8 2.8v2.8h19.6V8.4a2.8 2.8 0 0 0-2.8-2.8Z" fill="#fff" fill-rule="evenodd" data-name="Path 1950"/></svg>