<svg xmlns="http://www.w3.org/2000/svg" width="25.933" height="27.283" viewBox="3.5 -0.017 25.933 27.283"><path d="M27.584 9.128c-.156-.306-.415-.607-.718-.452l-.2.101-.336.174-11.48 5.883c.014-.053.021-.105.036-.158.215-.513 3.48-14.03 3.48-14.03L18.26 0l-4.86 11.903.707 1.687-.873 2.073-8.981 4.603-.534.273c-.303.156-.21.543-.055.847.157.307 1.73 3.228 1.945 3.648.52-.204.55-.518.383-.846-.169-.327-1.288-2.513-1.288-2.513l.216-.11.275-.142 1.469 2.864.414-.213L5.61 21.21l.348-.177 1.469 2.865.414-.213-1.468-2.864.292-.15 1.467 2.865.415-.213-1.468-2.864.348-.178 1.468 2.863.415-.212-1.468-2.864.359-.186 1.468 2.866.414-.213-1.468-2.865.347-.179 1.458 2.845c-.027.053-.058.105-.083.16-.676 1.452-.387 3.123.7 4.062.198.172.419.314.655.423.767.359 1.643.355 2.464-.009.799-.352 1.452-1.007 1.842-1.842.574-1.236.448-2.63-.272-3.597-.072-.14-.354-.721-.616-1.576l.207-.105-.471-.919a10.64 10.64 0 0 1-.192-1.279l1.03 2.01.413-.213-1.469-2.865.348-.178 1.469 2.865.415-.212-1.468-2.864.293-.151 1.467 2.864.416-.212-1.469-2.865.348-.178 1.469 2.864.414-.212-1.47-2.861.36-.184 1.469 2.865.414-.212-1.468-2.865.348-.177 1.468 2.864.414-.213-1.47-2.865.34-.175 1.47 2.865.414-.211-1.469-2.865.349-.179 1.468 2.864.414-.212-1.468-2.864.36-.185 1.468 2.865.414-.213-1.468-2.864.346-.179 1.47 2.866.414-.212-1.47-2.865.368-.188 1.469 2.864.414-.213-1.47-2.865.35-.177 1.467 2.864.416-.212-1.468-2.865.292-.15 1.468 2.865.414-.213-1.469-2.864.348-.179 1.469 2.864.414-.212-1.468-2.864.36-.185 1.467 2.865.415-.212-1.468-2.865.346-.178 1.468 2.865.414-.214-1.468-2.864.363-.187 1.469 2.865.413-.212-1.468-2.865.225-.116.217-.11 1.288 2.513c.168.328.44.486.909.183-.217-.417-1.67-3.4-1.827-3.705Zm-13.423 2.509a.533.533 0 1 1 .807.696.533.533 0 0 1-.807-.696Zm-1.81 6.118-.02.054-.017-.033.038-.021Zm-.453.233.196.381-.198.47-.345-.671.347-.18Zm-.761.391.523 1.02-.165.395-.65-1.265.292-.15Zm-.708.362.828 1.614-.197.468-.976-1.904.345-.178Zm-.76.391 1.154 2.251-.167.396-1.28-2.498.293-.149Zm5.412 5.575c-.286.612-.76 1.09-1.333 1.343-.552.244-1.13.251-1.63.018a1.859 1.859 0 0 1-.42-.271c-.747-.647-.93-1.827-.445-2.87.286-.613.759-1.09 1.334-1.345.55-.243 1.129-.25 1.628-.018.153.072.293.162.42.272.749.645.932 1.827.446 2.871Z" fill="#fcf8d2" fill-rule="evenodd" data-name="Path 1"/></svg>