<svg xmlns="http://www.w3.org/2000/svg" width="29.45" height="27.283" viewBox="-0.017 13.883 29.45 27.283"><g data-name="Group 2"><path d="M27.585 23.02c-.156-.306-.415-.607-.718-.452l-.2.101-.336.174-11.48 5.883c.014-.053.021-.105.036-.158.215-.513 3.48-14.03 3.48-14.03l-.105-.646-4.86 11.903.707 1.687-.873 2.073-8.981 4.603-.534.273c-.303.156-.21.543-.055.847.157.307 1.73 3.228 1.945 3.648.52-.204.55-.518.383-.846-.169-.327-1.288-2.513-1.288-2.513l.216-.11.275-.142 1.469 2.864.414-.213-1.469-2.864.348-.177 1.469 2.865.414-.213-1.468-2.864.292-.15 1.467 2.865.415-.213L7.08 34.35l.348-.178 1.468 2.863.415-.212-1.468-2.864.359-.186L9.67 36.64l.414-.213-1.468-2.865.347-.179 1.458 2.845c-.027.053-.058.105-.083.16-.676 1.452-.387 3.123.7 4.062.198.172.419.314.655.423.767.359 1.643.355 2.463-.009.8-.352 1.453-1.007 1.843-1.842.574-1.236.448-2.63-.272-3.597-.072-.14-.354-.721-.616-1.576l.206-.105-.47-.919a10.64 10.64 0 0 1-.192-1.279l1.03 2.01.413-.213-1.469-2.865.348-.178 1.469 2.865.415-.212-1.468-2.864.293-.151 1.467 2.864.416-.212-1.469-2.865.348-.178 1.469 2.864.414-.212-1.47-2.861.36-.184 1.469 2.865.414-.212-1.468-2.865.348-.177 1.468 2.864.414-.213-1.47-2.865.34-.175 1.47 2.865.414-.211-1.469-2.865.349-.179 1.468 2.864.414-.212-1.468-2.864.36-.185 1.468 2.865.414-.213-1.468-2.864.346-.179 1.47 2.866.414-.212-1.47-2.865.368-.188 1.469 2.864.414-.213-1.47-2.865.35-.177 1.467 2.864.416-.212-1.468-2.865.292-.15 1.468 2.865.414-.213-1.469-2.864.348-.179 1.469 2.864.414-.212-1.468-2.864.36-.185 1.467 2.865.415-.212-1.468-2.865.346-.178 1.468 2.865.414-.214-1.468-2.864.363-.187 1.469 2.865.413-.212-1.468-2.865.225-.116.217-.11 1.288 2.513c.168.328.44.486.909.183-.217-.417-1.67-3.4-1.827-3.705Zm-13.423 2.509a.533.533 0 1 1 .807.696.533.533 0 0 1-.807-.696Zm-1.81 6.118-.02.054-.017-.033.038-.021Zm-.453.233.196.381-.199.47-.344-.671.347-.18Zm-.761.391.523 1.02-.165.395-.65-1.265.292-.15Zm-.708.362.828 1.614-.198.468-.975-1.904.345-.178Zm-.76.391 1.154 2.251-.167.396-1.28-2.498.293-.149Zm5.412 5.575c-.286.612-.76 1.09-1.334 1.343-.55.244-1.129.251-1.629.018a1.859 1.859 0 0 1-.42-.271c-.747-.647-.93-1.827-.445-2.87.286-.613.759-1.09 1.334-1.345.55-.243 1.129-.25 1.628-.018.153.072.293.162.42.272.749.645.932 1.827.446 2.871Z" fill="#fff" fill-rule="evenodd" data-name="Path 1"/><path d="m15.732 26.964 10.483-6.198-.686.012s-5.28 2.153-9.191 3.772c-.23.923-.439 1.757-.606 2.414Z" fill="#fff" fill-rule="evenodd" data-name="Path 2"/><path d="m5.075 31.838.015-.011-.008.02 8.322-4.93.005.001-.408-.973c-.434.184-.713.308-.776.345-3.276 1.344-6.736.132-6.983.041-1.047-.542-2.41-.468-3.529.247-.776.497-1.338 1.231-1.581 2.07-.252.862-.137 1.73.318 2.442.147.231.327.439.533.617 1.075.929 2.759.984 4.092.13Zm-3.432-.897a1.835 1.835 0 0 1-.341-.394c-.297-.466-.368-1.039-.2-1.619.176-.602.586-1.134 1.155-1.498.96-.614 2.148-.595 2.888.045.133.114.248.247.343.395.296.464.366 1.038.199 1.616-.175.602-.586 1.134-1.155 1.499-.961.615-2.148.596-2.89-.044Z" fill="#fff" fill-rule="evenodd" data-name="Path 3"/></g></svg>