<svg xmlns="http://www.w3.org/2000/svg" width="15.3" height="27.017" viewBox="55.317 49 15.3 27.017"><path d="M63.555 60.85c-3.405-.885-4.5-1.8-4.5-3.225 0-1.635 1.515-2.775 4.05-2.775 2.67 0 3.66 1.275 3.75 3.15h3.315c-.105-2.58-1.68-4.95-4.815-5.715V49h-4.5v3.24c-2.91.63-5.25 2.52-5.25 5.415 0 3.465 2.865 5.19 7.05 6.195 3.75.9 4.5 2.22 4.5 3.615 0 1.035-.735 2.685-4.05 2.685-3.09 0-4.305-1.38-4.47-3.15h-3.3c.18 3.285 2.64 5.13 5.52 5.745V76h4.5v-3.225c2.925-.555 5.25-2.25 5.25-5.325 0-4.26-3.645-5.715-7.05-6.6Z" fill="#fff" fill-rule="evenodd" data-name="Icon material-attach-money"/></svg>