<svg xmlns="http://www.w3.org/2000/svg" width="20.033" height="20.033" viewBox="1089 907 20.033 20.033"><g data-name="Group 9704"><path d="M1104 927h-10a5 5 0 0 1-5-5v-10a5 5 0 0 1 5-5h10a5 5 0 0 1 5 5v10a5 5 0 0 1-5 5z" fill="rgba(234,58,61,0.2 )" fill-rule="evenodd" data-name="icon bg"/><path d="M1099.378 913.568v5.122l1.638-1.638a.352.352 0 0 1 .498.497l-2.232 2.231a.351.351 0 0 1-.51.004l-2.234-2.235a.352.352 0 1 1 .497-.497l1.64 1.638v-5.122a.352.352 0 1 1 .703 0Z" fill="#ea3a3d" fill-rule="evenodd" data-name="Form 7"/></g></svg>