<svg xmlns="http://www.w3.org/2000/svg" width="29.45" height="27.283" viewBox="179.283 299.883 29.45 27.283"><g data-name="Group 3"><g data-name="Group 2"><path d="M206.879 309.023c-.157-.306-.416-.607-.719-.452l-.199.102-.336.173-11.48 5.884c.013-.054.02-.106.036-.159.215-.513 3.48-14.029 3.48-14.029l-.105-.647-4.861 11.903.708 1.687-.873 2.073-8.982 4.603c-.321.166-.51.262-.534.273-.302.156-.21.544-.054.847.157.307 1.73 3.228 1.945 3.648.52-.204.55-.517.383-.845l-1.289-2.513.216-.111.276-.142 1.468 2.865.414-.214-1.468-2.864.347-.177 1.47 2.865.414-.213-1.468-2.864.291-.15 1.468 2.865.415-.213-1.469-2.864.349-.178 1.468 2.864.415-.213-1.468-2.864.358-.185 1.469 2.865.414-.212-1.469-2.866.348-.178 1.458 2.844c-.027.053-.058.105-.083.16-.676 1.453-.387 3.124.7 4.062.197.172.418.315.655.424.767.358 1.642.354 2.463-.01.8-.352 1.453-1.007 1.842-1.841.575-1.237.448-2.63-.272-3.598-.071-.14-.353-.721-.615-1.576l.206-.105-.47-.919a10.64 10.64 0 0 1-.193-1.279l1.03 2.01.414-.212-1.47-2.866.35-.177 1.467 2.864.416-.212-1.468-2.864.292-.151 1.468 2.864.415-.212-1.468-2.865.347-.178 1.47 2.864.414-.212-1.47-2.861.36-.184 1.468 2.865.415-.212-1.468-2.865.348-.177 1.468 2.864.414-.213-1.47-2.865.34-.175 1.469 2.866.414-.212-1.468-2.865.348-.178 1.469 2.864.413-.213-1.467-2.864.359-.185 1.468 2.865.415-.212-1.468-2.865.346-.179 1.47 2.866.414-.212-1.47-2.865.368-.188 1.468 2.864.415-.213-1.47-2.864.349-.178 1.468 2.864.416-.212-1.469-2.864.293-.151 1.467 2.865.415-.212-1.47-2.865.35-.178 1.467 2.864.415-.212-1.468-2.865.359-.185 1.468 2.865.415-.212-1.469-2.865.347-.178 1.468 2.865.414-.214-1.469-2.864.364-.187 1.468 2.865.414-.212-1.468-2.865.224-.115.218-.11 1.288 2.512c.167.328.44.487.908.184-.216-.418-1.669-3.4-1.826-3.706Zm-13.424 2.51a.533.533 0 1 1 .807.695.533.533 0 0 1-.807-.696Zm-1.808 6.117-.022.055-.017-.034.039-.021Zm-.454.233.196.382-.199.469-.344-.671.347-.18Zm-.762.392.524 1.02-.166.394-.649-1.264.291-.15Zm-.707.361.827 1.614-.197.469-.975-1.905.345-.178Zm-.76.391 1.154 2.252-.167.395-1.28-2.497.293-.15Zm5.412 5.576c-.286.611-.76 1.089-1.334 1.342-.551.244-1.129.251-1.63.019a1.859 1.859 0 0 1-.42-.272c-.747-.647-.93-1.827-.444-2.87.286-.613.759-1.09 1.333-1.344.55-.244 1.13-.25 1.628-.018.153.071.294.161.421.271.748.645.932 1.827.446 2.872Z" fill="#fcf8d2" fill-rule="evenodd" data-name="Path 1"/><path d="m195.026 312.967 10.483-6.198-.687.012s-5.279 2.153-9.19 3.772c-.23.923-.44 1.757-.606 2.414Z" fill="#fcf8d2" fill-rule="evenodd" data-name="Path 2"/><path d="m184.369 317.841.014-.01-.008.02 8.323-4.93h.005l-.409-.973c-.433.185-.712.308-.775.346-3.277 1.343-6.737.131-6.984.04-1.046-.542-2.41-.468-3.528.247-.777.497-1.338 1.231-1.582 2.07-.251.863-.137 1.73.318 2.443.148.23.327.438.534.616 1.074.93 2.759.984 4.092.131Zm-3.433-.897a1.835 1.835 0 0 1-.34-.394c-.298-.466-.369-1.038-.2-1.618.175-.602.586-1.135 1.154-1.499.96-.613 2.148-.595 2.888.045.134.114.248.248.343.395.296.464.367 1.038.2 1.616-.176.603-.586 1.135-1.156 1.5-.96.614-2.148.596-2.889-.045Z" fill="#fcf8d2" fill-rule="evenodd" data-name="Path 3"/></g></g></svg>