<svg xmlns="http://www.w3.org/2000/svg" width="27.033" height="19.133" viewBox="285.717 5.433 27.033 19.133"><path d="M302.784 9.35a11.302 11.302 0 0 0-9.475 1.122l-7.112 4.411a.989.989 0 0 0 .006 1.683l5.819 3.547-2.749 2.748a.988.988 0 1 0 1.397 1.397L307.79 7.14a.988.988 0 1 0-1.398-1.397l-3.608 3.608Zm3.667 1.922-3.691 3.691a3.626 3.626 0 0 1-4.346 4.345l-2.717 2.717a11.301 11.301 0 0 0 9.474-1.06l7.086-4.331a.988.988 0 0 0 .013-1.678l-5.82-3.684Zm-6.537.95a3.625 3.625 0 0 0-4.241 4.24l4.24-4.24Z" fill="#4f4f4f" fill-rule="evenodd" data-name="Path 41024"/></svg>